<svg id="Layer_1" data-name="Layer 1" xmlns="http://www.w3.org/2000/svg" viewBox="0 0 144.71 125.38"><defs><style>.cls-1{fill:#fff;}.cls-2{fill:#8c918e;}.cls-3{fill:#f96625;}.cls-4{fill:#474747;}</style></defs><title>Artboard 5</title><path class="cls-1" d="M51.74,32.33l4.49,2.15L69,34.42a20.78,20.78,0,0,1,40.22-.16l13.36-.06,3.91-1.87a2.12,2.12,0,0,0,1.1-2.57l-1.64-4.94a2.1,2.1,0,0,0-2.41-1.41l-5.32,1a2.11,2.11,0,0,1-2.2-1A32.19,32.19,0,0,0,112.66,19a2.1,2.1,0,0,1-.27-2.4l2.6-4.76a2.11,2.11,0,0,0-.62-2.73L110.15,6a2.11,2.11,0,0,0-2.78.27l-3.69,4a2.11,2.11,0,0,1-2.36.5A31.49,31.49,0,0,0,96,9a2.11,2.11,0,0,1-1.63-1.79l-.68-5.38A2.11,2.11,0,0,0,91.57,0H86.64a2.11,2.11,0,0,0-2.1,1.85l-.68,5.38A2.11,2.11,0,0,1,82.24,9a31.21,31.21,0,0,0-5.35,1.72,2.12,2.12,0,0,1-2.37-.5l-3.69-4A2.11,2.11,0,0,0,68.05,6L63.83,9.06a2.11,2.11,0,0,0-.62,2.73l2.6,4.76a2.09,2.09,0,0,1-.27,2.4,33,33,0,0,0-3.33,4.53,2.1,2.1,0,0,1-2.2,1l-5.31-1a2.1,2.1,0,0,0-2.42,1.41l-1.64,4.94A2.12,2.12,0,0,0,51.74,32.33Z"/><path class="cls-1" d="M89.1,60.8a20.79,20.79,0,0,1-7.9-1.61l-12.51.05,1.9,13.59,3.53-3.69a2.12,2.12,0,0,1,2.38-.46,31.8,31.8,0,0,0,5.73,1.89,2.11,2.11,0,0,1,1.63,1.79l.66,5.25,5.15,0-.07-16.8Z"/><path class="cls-1" d="M65.49,62.71l-2.66,4.73a2.11,2.11,0,0,0,.58,2.74L67.18,73,65.67,62.23A1.64,1.64,0,0,1,65.49,62.71Z"/><path class="cls-1" d="M65.26,60.31a1.89,1.89,0,0,1,.19.3l-.19-1.35H64.4C64.68,59.62,65,60,65.26,60.31Z"/><path class="cls-1" d="M62.26,37.85l-4.52,0c0,.64-.07,1.28-.07,1.92q0,1.3.12,2.58a2.13,2.13,0,0,1-1.22,2.1l-4.93,2.27a2.1,2.1,0,0,0-1.13,2.55l1.57,5a2.09,2.09,0,0,0,2.39,1.44l5.33-1a2.11,2.11,0,0,1,2.2,1l.21.34h2.6Z"/><path class="cls-1" d="M93,60.4l.07,17.17h.62l.65-5.21A2.11,2.11,0,0,1,96,70.57a31.54,31.54,0,0,0,5.73-1.89,2.12,2.12,0,0,1,2.38.46l3.75,3.91a2.11,2.11,0,0,0,2.79.23l.61-.45,1.37-10.42a2.08,2.08,0,0,1,.25-2l.19-1.39-15.88.07A20.88,20.88,0,0,1,93,60.4Z"/><path class="cls-1" d="M109.93,39.79a21,21,0,0,1-7.53,16.12l11.06,0,2.39-18.23-6,0A19.05,19.05,0,0,1,109.93,39.79Z"/><path class="cls-1" d="M68.27,39.79c0-.66,0-1.32.09-2l-2.67,0,2.55,18.21,7.69,0A21,21,0,0,1,68.27,39.79Z"/><path class="cls-1" d="M115.37,67.42,115,70a2.12,2.12,0,0,0,.35-2.53Z"/><path class="cls-1" d="M126.56,46.74l-4.92-2.27a2.1,2.1,0,0,1-1.22-2.1c.07-.85.11-1.71.11-2.58s0-1.46-.09-2.18h-1.16L117,55a2.11,2.11,0,0,1,1.4-.25l5.33,1a2.11,2.11,0,0,0,2.4-1.44l1.56-5A2.1,2.1,0,0,0,126.56,46.74Z"/><path class="cls-2" d="M136.25,108.9h0l-10.34,0a14.29,14.29,0,0,1,1,3.39l9.35,0a1.7,1.7,0,0,0,0-3.4Z"/><path class="cls-2" d="M83.48,112.52l15.68-.06a14.31,14.31,0,0,1,1-3.4l-17.71.07A13.37,13.37,0,0,1,83.48,112.52Z"/><path class="cls-2" d="M22.18,33a1.7,1.7,0,0,0-1.62-1.21h0l-18.86.08a1.7,1.7,0,0,0,0,3.4h0L19.3,35.2l23.3,76.28a1.7,1.7,0,0,0,1.63,1.21h0l12.27-.06a13.93,13.93,0,0,1,1-3.4l-12,0Z"/><path class="cls-2" d="M78.85,109.14A10.54,10.54,0,0,0,70,104.31h0a10.51,10.51,0,0,0-8.85,4.91,10.19,10.19,0,0,0-1.4,3.4,10,10,0,0,0-.24,2.27A10.52,10.52,0,0,0,70,125.38h0a10.55,10.55,0,0,0,10.5-10.58,11.18,11.18,0,0,0-.26-2.26A10.68,10.68,0,0,0,78.85,109.14Zm-3.78,10.73A7.11,7.11,0,0,1,70,122h0a7.14,7.14,0,0,1,0-14.27h0a7.05,7.05,0,0,1,4.3,1.45,7.13,7.13,0,0,1,2.45,3.39,6.79,6.79,0,0,1,.39,2.26A7.09,7.09,0,0,1,75.07,119.87Z"/><path class="cls-2" d="M121.9,109a11,11,0,0,0-1.44-1.78,10.54,10.54,0,0,0-14.9.07,11.06,11.06,0,0,0-1.42,1.79,10.43,10.43,0,0,0-1.39,3.4,10.73,10.73,0,0,0-.24,2.27A10.53,10.53,0,0,0,113,125.2h0A10.54,10.54,0,0,0,121.9,109Zm-3.79,10.73a7.11,7.11,0,0,1-5,2.11,7.14,7.14,0,0,1-7.16-7.11,6.86,6.86,0,0,1,.36-2.26,7.11,7.11,0,0,1,1.71-2.79,6,6,0,0,1,.71-.62,7,7,0,0,1,4.32-1.49h0a7.11,7.11,0,0,1,4.31,1.45,6.85,6.85,0,0,1,.71.62,7.08,7.08,0,0,1,1.73,2.77,7.16,7.16,0,0,1,.38,2.27A7,7,0,0,1,118.11,119.69Z"/><path class="cls-2" d="M144.35,34.77a1.71,1.71,0,0,0-1.34-.65h0l-20.45.08-13.36.06L69,34.42l-12.74.06-18,.07a1.7,1.7,0,0,0-1.63,2.14l16.51,61.9a1.7,1.7,0,0,0,1.64,1.27h0l72.25-.3a1.71,1.71,0,0,0,1.64-1.28l16-62A1.72,1.72,0,0,0,144.35,34.77ZM110.61,77.5l-16.92.07h-.62L93,60.4V59.14h4.17L113,59.06l-.19,1.39-.25,2-1.37,10.42Zm-2.46,18.74-15,.06-.07-15.74,17.14-.07ZM70.59,72.83l-1.9-13.59,12.51-.05,8.39,0v1.63l.07,16.8-5.15,0-13.26,0Zm39.23-35.18,6,0-2.39,18.23-11.06,0L93,56,92.9,37.72Zm-41.46.17,21.14-.08L89.58,56,75.93,56l-7.69,0L65.69,37.84Zm-10.62,0,4.52,0,2.55,18.22h-2.6l-16.9.07L40.46,37.94ZM64.4,59.26h.86l.19,1.35.22,1.62L67.18,73l.65,4.7-16.76.07-4.9-18.41ZM56.06,96.45,51.87,80.73l16.38-.07,2.2,15.73Zm17.82-.07-2.2-15.73,18-.07.07,15.73Zm51.82-.22-14.12.06,2.07-15.74,16.11-.07Zm4.83-18.74L114,77.48,115,70l.34-2.55,1.1-8.37L135.29,59Zm5.58-21.65-19.23.08L117,55l2.28-17.37h1.16l20.37-.09Z"/><ellipse class="cls-3" cx="89.16" cy="39.79" rx="20.83" ry="21.01"/><polygon class="cls-4" points="72.25 41.48 86.26 55.49 130.56 11.19 123.23 3.86 86.82 40.27 79.82 33.13 72.25 41.48"/></svg>